<svg xmlns="http://www.w3.org/2000/svg" xmlns:xlink="http://www.w3.org/1999/xlink" viewBox="0,0,256,256" width="48px" height="48px"><g fill="#ffffff" fill-rule="nonzero" stroke="none" stroke-width="1" stroke-linecap="butt" stroke-linejoin="miter" stroke-miterlimit="10" stroke-dasharray="" stroke-dashoffset="0" font-family="none" font-weight="none" font-size="none" text-anchor="none" style="mix-blend-mode: normal"><g transform="scale(5.33333,5.33333)"><path d="M24,4c-11.028,0 -20,8.972 -20,20c0,10.006 7.394,18.295 17,19.75v-14.75h-4c-0.552,0 -1,-0.447 -1,-1v-3c0,-0.553 0.448,-1 1,-1h4v-3.632c0,-4.751 2.427,-7.368 6.834,-7.368c1.786,0 3.195,0.124 3.254,0.129c0.516,0.046 0.912,0.478 0.912,0.996v3.375c0,0.553 -0.448,1 -1,1h-2c-1.103,0 -2,0.897 -2,2v3.5h4c0.287,0 0.56,0.123 0.75,0.338c0.19,0.216 0.278,0.502 0.243,0.786l-0.375,3c-0.063,0.5 -0.489,0.876 -0.993,0.876h-3.625v14.75c9.606,-1.455 17,-9.744 17,-19.75c0,-11.028 -8.972,-20 -20,-20z"></path></g></g></svg>